# Blender 4.3.2
# www.blender.org
mtllib grapplegun.mtl
o Cube
v 0.530494 0.333340 -0.509774
v 0.502563 0.310885 -0.475868
v -0.987204 0.962772 -0.459899
v -0.958783 0.983984 -0.491623
v 0.502563 0.310885 0.020313
v 0.530494 0.333340 0.054219
v -0.958783 0.983984 0.036068
v -0.987204 0.962772 0.004344
v 0.967153 0.684392 -0.475868
v 0.939223 0.661937 -0.509774
v -0.542880 1.294401 -0.491623
v -0.514460 1.315614 -0.459899
v 0.939223 0.661937 0.054219
v 0.967153 0.684392 0.020313
v -0.514460 1.315614 0.004344
v -0.542880 1.294401 0.036068
v -1.523548 1.319501 -0.467898
v -1.523548 1.283010 -0.485528
v -1.523548 0.946554 -0.485528
v -1.523548 0.910064 -0.467898
v -1.523548 1.283010 0.029973
v -1.523548 1.319501 0.012342
v -1.523548 0.910064 0.012342
v -1.523548 0.946554 0.029973
v -1.998356 1.283010 -0.491344
v -1.998356 1.319501 -0.467898
v -1.998356 0.946554 0.029973
v -1.998356 0.910064 0.012342
v -1.998356 0.910064 -0.467898
v -1.998356 0.946554 -0.491344
v -1.998356 1.319501 0.012342
v -1.998356 1.283010 0.029973
v -2.526983 1.245533 0.029973
v -1.998356 1.283010 0.029973
v -2.526983 1.307623 -0.455529
v -2.526983 1.319501 -0.441672
v -1.998356 1.319501 -0.467898
v -1.998356 1.307623 -0.473637
v -2.526768 1.216740 -0.485778
v -2.526983 1.265902 -0.475687
v -1.998356 1.303380 -0.475687
v -1.998356 1.283010 -0.485528
v -2.525568 0.963717 -0.477361
v -2.525254 1.013734 -0.487542
v -1.996407 0.946554 -0.487800
v -1.997457 0.926904 -0.477083
v -2.526983 1.028972 0.029973
v -2.526983 0.952262 0.014623
v -1.998356 0.914784 0.014623
v -1.998356 0.946554 0.029973
v -2.526983 0.910064 -0.427673
v -2.526155 0.941442 -0.465915
v -1.997457 0.926904 -0.477083
v -1.998356 0.910064 -0.467898
v -2.526983 0.925967 0.001919
v -2.526983 0.910064 -0.016634
v -1.998356 0.910064 0.012342
v -1.998356 0.914784 0.014623
v -2.526983 1.281314 0.012685
v -1.998356 1.283010 0.029973
v -2.526983 1.319501 -0.062154
v -2.526983 1.295522 -0.003890
v -1.998356 1.283010 0.029973
v -1.998356 1.319501 0.012342
v -0.526982 1.273834 0.029973
v -0.526982 1.319501 0.007909
v -0.526982 0.910064 0.007909
v -0.526982 0.955730 0.029973
v -0.526982 1.319501 -0.463464
v -0.526982 1.273834 -0.485528
v -0.526982 0.955730 -0.485528
v -0.526982 0.910064 -0.463464
v -1.523548 1.283010 -0.485528
v -1.523548 1.319501 -0.467898
v -1.523548 0.910064 -0.467898
v -1.523548 0.946554 -0.485528
v -1.523548 1.319501 0.012342
v -1.523548 1.283010 0.029973
v -1.523548 0.946554 0.029973
v -1.523548 0.910064 0.012342
vn -0.0078 0.0101 -0.9999
vn 0.3919 0.9200 -0.0000
vn -0.5981 0.8014 -0.0000
vn -0.4009 -0.9161 -0.0000
vn -0.0078 0.0101 0.9999
vn -0.2958 -0.6584 -0.6921
vn -0.2958 -0.6584 0.6921
vn 0.2786 0.6719 0.6862
vn 0.2786 0.6719 -0.6862
vn 0.6266 -0.7794 -0.0000
vn 0.0122 -0.0000 -0.9999
vn -0.0000 -0.0000 1.0000
vn -0.0000 1.0000 -0.0000
vn -1.0000 -0.0000 -0.0000
vn -0.0000 -1.0000 -0.0000
vn -0.0000 -0.0000 -1.0000
vn 0.0053 -0.4905 -0.8714
vn -0.0000 0.4350 0.9004
vn 0.0053 0.4905 -0.8714
vn -0.0000 -0.4350 0.9004
vn 1.0000 -0.0000 -0.0000
vn -0.0111 0.0075 -0.9999
vn -0.0323 0.6360 -0.7710
vn -0.0308 0.4348 0.9000
vn -0.0268 0.2754 -0.9610
vn -0.0308 0.4348 -0.9000
vn -0.0282 -0.2867 -0.9576
vn -0.0308 -0.4348 0.9000
vn -0.0309 -0.2722 0.9618
vn -0.8370 0.2958 0.4604
vn -0.0443 -0.6997 -0.7130
vn -0.0313 -0.4562 -0.8893
vn -0.0352 -0.7102 0.7031
vn -0.0237 0.7590 0.6506
vn -0.0545 0.7809 0.6222
vn -1.0000 -0.0002 -0.0016
vn 0.0040 0.4350 -0.9004
vn 0.0040 0.4350 0.9004
vn 0.0040 -0.4350 -0.9004
vn 0.0040 -0.4350 0.9004
vt 0.375000 0.765030
vt 0.625000 0.765030
vt 0.625000 0.984970
vt 0.375000 0.984970
vt 0.375000 0.515030
vt 0.625000 0.515030
vt 0.625000 0.734970
vt 0.375000 0.734970
vt 0.640030 0.500000
vt 0.859970 0.500000
vt 0.875000 0.515030
vt 0.875000 0.734970
vt 0.859970 0.750000
vt 0.640030 0.750000
vt 0.375000 0.015030
vt 0.625000 0.015030
vt 0.625000 0.234970
vt 0.375000 0.234970
vt 0.375000 0.265030
vt 0.625000 0.265030
vt 0.625000 0.484970
vt 0.375000 0.484970
vt 0.375000 0.000000
vt 0.625000 0.000000
vt 0.125000 0.515030
vt 0.140030 0.500000
vt 0.359970 0.500000
vt 0.359970 0.750000
vt 0.140030 0.750000
vt 0.125000 0.734970
vt 0.397281 0.316078
vt 0.602719 0.316078
vt 0.602719 0.375429
vt 0.397281 0.375429
vt 0.402884 0.750000
vt 0.597116 0.750000
vt 0.602719 0.874571
vt 0.397281 0.874571
vt 0.191078 0.508550
vt 0.250429 0.508550
vt 0.250429 0.741450
vt 0.191078 0.741450
vt 0.808922 0.750000
vt 0.808922 0.741450
vt 0.808922 0.742556
vt 0.749571 0.508550
vt 0.808922 0.508550
vt 0.808922 0.741450
vt 0.749571 0.741450
vt 0.375000 0.375429
vt 0.602719 0.874571
vt 0.602719 0.933922
vt 0.397281 0.933922
vt 0.602719 0.375429
vt 0.597116 0.500000
vt 0.402884 0.500000
vt 0.625000 0.510700
vt 0.749571 0.508550
vt 0.749571 0.741450
vt 0.625000 0.739300
vt 0.749571 0.500000
vt 0.375000 0.874571
vt 0.749571 0.750000
vt 0.808922 0.500000
vt 0.375000 0.933922
vt 0.375000 0.316078
vt 0.375000 0.510700
vt 0.597116 0.500000
vt 0.625000 0.739300
vt 0.597116 0.750000
vt 0.375000 0.739300
vt 0.437745 0.250000
vt 0.561700 0.250000
vt 0.602719 0.316078
vt 0.602719 0.933922
vt 0.552395 1.000000
vt 0.420165 1.000000
vt 0.382253 0.316078
vt 0.384844 0.316078
vt 0.375000 0.314132
vt 0.375000 0.250000
vt 0.382253 0.250000
vt 0.382253 0.314766
vt 0.398317 1.000000
vt 0.384844 0.314992
vt 0.407727 0.250000
vt 0.810868 0.500000
vt 0.875000 0.500000
vt 0.875000 0.504760
vt 0.809820 0.504604
vt 0.875000 0.742556
vt 0.809173 0.742556
vt 0.875000 0.736395
vt 0.875000 0.750000
vt 0.810868 0.750000
vt 0.808922 0.504604
vt 0.875000 0.528058
vt 0.875000 0.509979
vt 0.875000 0.727397
vt 0.125000 0.521269
vt 0.191078 0.508550
vt 0.191078 0.741450
vt 0.125000 0.705321
vt 0.389642 1.000000
vt 0.375000 1.000000
vt 0.375000 0.935868
vt 0.375000 0.044679
vt 0.389641 0.016422
vt 0.398317 0.008384
vt 0.420165 0.000000
vt 0.552395 0.000000
vt 0.599234 0.007444
vt 0.615290 0.013605
vt 0.625000 0.022603
vt 0.625000 0.221942
vt 0.605840 0.240021
vt 0.592240 0.245240
vt 0.561700 0.250000
vt 0.437745 0.250000
vt 0.407727 0.245227
vt 0.382253 0.235451
vt 0.375000 0.228731
vt 0.375000 0.500000
vt 0.375000 0.377376
vt 0.375000 0.872624
vt 0.375000 0.750000
vt 0.625000 0.500000
vt 0.747624 0.500000
vt 0.747624 0.750000
vt 0.625000 0.750000
vt 0.375000 0.739300
vt 0.250429 0.741450
s 0
f 10/1/1 1/4/1 4/3/1 11/2/1
f 14/5/2 9/8/2 12/7/2 15/6/2
f 15/6/3 12/7/3 11/14/3 4/13/3 3/12/3 8/11/3 7/10/3 16/9/3
f 2/15/4 5/18/4 8/17/4 3/16/4
f 6/19/5 13/22/5 16/21/5 7/20/5
f 1/23/6 2/15/6 3/16/6 4/24/6
f 7/20/7 8/17/7 5/18/7 6/19/7
f 15/6/8 16/21/8 13/22/8 14/5/8
f 11/2/9 12/7/9 9/8/9 10/1/9
f 5/25/10 2/30/10 1/29/10 10/28/10 9/8/10 14/5/10 13/27/10 6/26/10
f 25/31/11 18/34/11 19/33/11 30/32/11
f 65/35/12 78/38/12 21/38/12 24/37/12 79/37/12 68/36/12
f 26/39/13 31/42/13 22/41/13 17/40/13
f 27/43/14 50/43/14 49/45/14 58/45/14 57/44/14 28/44/14
f 20/46/15 23/49/15 28/48/15 29/47/15
f 17/50/13 74/50/13 73/34/13 18/34/13
f 21/38/12 32/53/12 27/52/12 24/51/12
f 73/34/16 70/56/16 71/55/16 76/54/16 19/54/16 18/34/16
f 72/57/15 67/60/15 80/59/15 23/59/15 20/58/15 75/58/15
f 19/61/13 76/61/13 75/58/13 20/58/13
f 21/38/13 78/38/13 77/62/13 22/62/13
f 23/59/13 80/59/13 79/63/13 24/63/13
f 29/47/17 30/64/17 19/61/17 20/46/17
f 31/65/18 32/53/18 21/38/18 22/62/18
f 17/50/19 18/34/19 25/31/19 26/66/19
f 23/49/20 24/63/20 27/43/20 28/48/20
f 69/67/21 66/71/21 65/35/21 68/70/21 67/69/21 72/57/21 71/68/21 70/56/21
f 31/65/13 64/65/13 63/53/13 60/53/13 34/53/13 32/53/13
f 39/72/22 42/31/22 25/31/22 30/74/22 45/74/22 44/73/22
f 34/53/12 33/77/12 47/76/12 50/75/12 27/75/12 32/53/12
f 25/31/14 42/31/14 41/79/14 38/78/14 37/66/14 26/66/14
f 37/80/23 38/83/23 35/82/23 36/81/23
f 34/53/24 60/53/24 59/84/24 33/77/24
f 39/72/25 40/86/25 41/85/25 42/31/25
f 40/86/26 35/82/26 38/83/26 41/85/26
f 45/87/27 46/90/27 43/89/27 44/88/27
f 48/91/28 55/93/28 58/92/28 49/92/28
f 47/94/29 48/91/29 49/92/29 50/95/29
f 29/47/30 54/47/30 53/96/30 46/96/30 45/64/30 30/64/30
f 51/97/31 52/98/31 53/90/31 54/47/31
f 52/98/32 43/89/32 46/90/32 53/90/32
f 57/44/33 58/92/33 55/93/33 56/99/33
f 29/47/15 28/44/15 57/44/15 56/99/15 51/97/15 54/47/15
f 36/100/13 61/103/13 64/102/13 31/102/13 26/101/13 37/101/13
f 62/104/34 59/84/34 60/53/34 63/53/34
f 61/105/35 62/104/35 63/53/35 64/106/35
f 61/107/36 36/122/36 35/121/36 40/120/36 39/119/36 44/118/36 43/117/36 52/116/36 51/115/36 56/114/36 55/113/36 48/112/36 47/111/36 33/110/36 59/109/36 62/108/36
f 73/34/37 74/124/37 69/123/37 70/56/37
f 65/35/38 66/126/38 77/125/38 78/38/38
f 75/58/39 76/128/39 71/127/39 72/57/39
f 79/129/40 80/59/40 67/60/40 68/130/40
f 17/40/13 22/132/13 77/132/13 66/131/13 69/67/13 74/40/13
